<svg aria-hidden="true" style="position: absolute; width: 0; height: 0; overflow: hidden;" version="1.1" xmlns="http://www.w3.org/2000/svg" xmlns:xlink="http://www.w3.org/1999/xlink">
<defs>
<symbol id="arrowbutton" viewBox="0 0 51 32">
<path fill="#fff" style="fill: var(--color1, #fff)" d="M0 16c0-1.767 1.433-3.2 3.2-3.2h37.072l-7.335-7.337c-1.154-1.154-1.242-2.969-0.266-4.224l0.266-0.301c1.154-1.154 2.969-1.242 4.224-0.266l0.301 0.266 12.932 12.941 0.177 0.217 0.229 0.356 0.171 0.361 0.113 0.337 0.093 0.475 0.022 0.376-0.009 0.241-0.056 0.402-0.094 0.357-0.141 0.355-0.167 0.312-0.214 0.307c-0.080 0.102-0.165 0.198-0.256 0.289l-12.8 12.8c-1.25 1.25-3.276 1.25-4.525 0-1.154-1.154-1.242-2.969-0.266-4.224l0.266-0.301 7.335-7.337h-37.072c-1.767 0-3.2-1.433-3.2-3.2z"></path>
</symbol>
<symbol id="arrowbuttonblack" viewBox="0 0 51 32">
<path fill="#000000" style="fill: var(--color1, #000000)" d="M0 16c0-1.767 1.433-3.2 3.2-3.2h37.072l-7.335-7.337c-1.154-1.154-1.242-2.969-0.266-4.224l0.266-0.301c1.154-1.154 2.969-1.242 4.224-0.266l0.301 0.266 12.932 12.941 0.177 0.217 0.229 0.356 0.171 0.361 0.113 0.337 0.093 0.475 0.022 0.376-0.009 0.241-0.056 0.402-0.094 0.357-0.141 0.355-0.167 0.312-0.214 0.307c-0.080 0.102-0.165 0.198-0.256 0.289l-12.8 12.8c-1.25 1.25-3.276 1.25-4.525 0-1.154-1.154-1.242-2.969-0.266-4.224l0.266-0.301 7.335-7.337h-37.072c-1.767 0-3.2-1.433-3.2-3.2z"></path>
</symbol>
<symbol id="arrowlist" viewBox="0 0 58 32">
<path d="M-0.001 28.799c0-0.819 0.314-1.638 0.938-2.262l25.6-25.6c1.251-1.251 3.274-1.251 4.525 0l25.6 25.6c1.251 1.251 1.251 3.274 0 4.525s-3.274 1.251-4.525 0l-23.338-23.338-23.338 23.338c-1.251 1.251-3.274 1.251-4.525 0-0.624-0.624-0.938-1.443-0.938-2.262z"></path>
</symbol>
<symbol id="mail" viewBox="0 0 41 32">
<path d="M35.077 0h-29.538c-0.648-0.007-1.292 0.115-1.892 0.36s-1.146 0.607-1.605 1.066c-0.459 0.459-0.821 1.004-1.066 1.605s-0.367 1.244-0.36 1.892v22.154c-0.007 0.648 0.115 1.292 0.36 1.892s0.607 1.146 1.066 1.605c0.459 0.459 1.004 0.821 1.605 1.066s1.244 0.367 1.892 0.36h29.538c0.648 0.007 1.292-0.115 1.892-0.36s1.146-0.607 1.605-1.066c0.459-0.459 0.821-1.004 1.066-1.605s0.367-1.244 0.36-1.892v-22.154c0.007-0.648-0.115-1.292-0.36-1.892s-0.607-1.146-1.066-1.605c-0.459-0.459-1.004-0.821-1.605-1.066s-1.244-0.367-1.892-0.36zM35.816 8.37l-14.769 11.077c-0.213 0.16-0.472 0.246-0.738 0.246s-0.525-0.086-0.738-0.246l-14.769-11.077c-0.261-0.196-0.434-0.487-0.48-0.811s0.038-0.651 0.234-0.913c0.196-0.261 0.487-0.434 0.811-0.48s0.651 0.038 0.913 0.234l14.031 10.523 14.031-10.523c0.129-0.097 0.276-0.168 0.433-0.208s0.319-0.049 0.48-0.026 0.314 0.077 0.453 0.159c0.139 0.082 0.261 0.191 0.358 0.321s0.168 0.276 0.208 0.433c0.040 0.157 0.049 0.32 0.026 0.48s-0.077 0.314-0.159 0.453c-0.082 0.139-0.191 0.261-0.321 0.358z"></path>
</symbol>
<symbol id="facebook" viewBox="0 0 33 32">
<path d="M32.5 16c-0.001-3.058-0.877-6.051-2.526-8.626s-4.001-4.623-6.778-5.903c-2.777-1.28-5.862-1.737-8.891-1.317s-5.874 1.698-8.198 3.684-4.032 4.597-4.919 7.523c-0.887 2.926-0.917 6.045-0.087 8.988s2.487 5.586 4.773 7.616 5.106 3.364 8.126 3.841v-11.181h-4.062v-4.625h4.062v-3.525c0-4.010 2.389-6.225 6.043-6.225 1.2 0.017 2.397 0.121 3.582 0.312v3.938h-2.018c-0.344-0.046-0.694-0.013-1.023 0.095s-0.631 0.289-0.881 0.529c-0.25 0.24-0.444 0.534-0.565 0.858s-0.169 0.673-0.137 1.018v3h4.438l-0.71 4.625h-3.728v11.181c3.764-0.595 7.192-2.515 9.666-5.412s3.834-6.583 3.834-10.394z"></path>
</symbol>
<symbol id="phone" viewBox="0 0 33 32">
<path d="M21.896 19.763l-2.608 3.261c-4.039-2.374-7.405-5.74-9.779-9.779l3.261-2.608c0.382-0.306 0.652-0.73 0.767-1.205s0.071-0.976-0.127-1.423l-2.972-6.691c-0.213-0.48-0.589-0.869-1.062-1.097s-1.012-0.281-1.52-0.149l-5.653 1.468c-0.529 0.137-0.988 0.463-1.292 0.917s-0.43 1.003-0.356 1.544c0.993 7.069 4.26 13.623 9.308 18.671s11.602 8.315 18.671 9.308c0.54 0.075 1.089-0.052 1.543-0.355s0.78-0.762 0.917-1.29l1.468-5.653c0.132-0.508 0.079-1.046-0.149-1.518s-0.616-0.849-1.096-1.062l-6.691-2.975c-0.447-0.199-0.947-0.244-1.423-0.129s-0.899 0.385-1.206 0.767z"></path>
</symbol>
</defs>
</svg>
