<svg width="24" height="18" viewBox="0 0 24 18" fill="none" xmlns="http://www.w3.org/2000/svg">
<path d="M12 18H22.5C23.328 18 24 17.328 24 16.5C24 15.672 23.328 15 22.5 15H12C11.172 15 10.5 15.672 10.5 16.5C10.5 17.328 11.172 18 12 18Z" fill="black"/>
<path d="M1.5 3H22.5C23.328 3 24 2.328 24 1.5C24 0.672 23.328 0 22.5 0H1.5C0.672 0 0 0.672 0 1.5C0 2.328 0.672 3 1.5 3Z" fill="black"/>
<path d="M1.5 10.5H22.5C23.328 10.5 24 9.828 24 9C24 8.172 23.328 7.5 22.5 7.5H1.5C0.672 7.5 0 8.172 0 9C0 9.828 0.672 10.5 1.5 10.5Z" fill="black"/>
</svg>
